<svg xmlns="http://www.w3.org/2000/svg" width="44.267" height="84.801" viewBox="0 0 44.267 84.801">
  <g id="left-arrow" transform="translate(161.539 0) rotate(90)">
    <path id="Path_35" data-name="Path 35" d="M81.645,117.835,42.4,157.089,3.145,117.835a1.843,1.843,0,0,0-2.607,2.606L41.094,161a1.843,1.843,0,0,0,2.607,0l40.555-40.555a1.843,1.843,0,0,0-2.561-2.652l-.045.045Z" transform="translate(-0.018)" fill="#ffc107"/>
    <path id="Path_36" data-name="Path 36" d="M42.378,161.54A1.843,1.843,0,0,1,41.072,161L.517,120.446a1.843,1.843,0,0,1,2.606-2.607l39.254,39.25,39.25-39.254a1.843,1.843,0,1,1,2.652,2.561l-.045.045L43.679,161A1.844,1.844,0,0,1,42.378,161.54Z" transform="translate(0 -0.001)"/>
  </g>
</svg>
