<svg id="coding" xmlns="http://www.w3.org/2000/svg" width="171" height="171" viewBox="0 0 171 171">
  <path id="Path_2" data-name="Path 2" d="M198,85.5A85.507,85.507,0,0,1,40.535,131.687h6.5a3.34,3.34,0,0,0,3.34-3.34V33.4a3.34,3.34,0,0,0-2.979-3.32A85.5,85.5,0,0,1,198,85.5Z" transform="translate(-26.997 0)" fill="#82e1e1"/>
  <g id="Group_1" data-name="Group 1" transform="translate(1.912 23.379)">
    <path id="Path_3" data-name="Path 3" d="M297.5,123.438H265.058l-8.455,8.455a1.67,1.67,0,0,1-2.362,0l-8.456-8.455H213.34A3.34,3.34,0,0,1,210,120.1V73.34A3.34,3.34,0,0,1,213.34,70h70.766a85.806,85.806,0,0,1,16.738,21.935V120.1A3.34,3.34,0,0,1,297.5,123.438Z" transform="translate(-141.775 -70)" fill="#50c8c8"/>
    <path id="Path_4" data-name="Path 4" d="M172.9,310A85.515,85.515,0,0,1,5.725,310Z" transform="translate(-5.725 -229.844)" fill="#50c8c8"/>
  </g>
  <path id="Path_5" data-name="Path 5" d="M148.259,93.34v94.949a3.34,3.34,0,0,1-3.34,3.34H28.2a85.326,85.326,0,0,1-6.184-11.453h4.335a1.67,1.67,0,0,0,1.67-1.67V105.029a1.67,1.67,0,0,0-1.67-1.67h-.626A85.761,85.761,0,0,1,35.081,90H144.919A3.34,3.34,0,0,1,148.259,93.34Z" transform="translate(-14.665 -59.941)" fill="#5f82c3"/>
  <path id="Path_6" data-name="Path 6" d="M126.914,131.67v73.477a1.67,1.67,0,0,1-1.67,1.67H7.355A85.63,85.63,0,0,1,11.062,130H125.244A1.67,1.67,0,0,1,126.914,131.67Z" transform="translate(0 -86.582)" fill="#ebf582"/>
  <path id="Path_7" data-name="Path 7" d="M138.564,206.816H27.355A85.63,85.63,0,0,1,31.062,130h107.5a1.67,1.67,0,0,1,1.67,1.67v73.477A1.67,1.67,0,0,1,138.564,206.816Z" transform="translate(-13.32 -86.582)" fill="#ffff91"/>
  <path id="Path_8" data-name="Path 8" d="M164.927,381.67V383.1a10.019,10.019,0,0,1-10.02,10.02H40.965A85.7,85.7,0,0,1,32,380H163.257A1.67,1.67,0,0,1,164.927,381.67Z" transform="translate(-21.314 -253.086)" fill="#506ea0"/>
  <path id="Path_9" data-name="Path 9" d="M172.769,197.437a10.018,10.018,0,0,1-9.983,9.2H48.844q-2.663-3.212-5.013-6.68H166.126A9.978,9.978,0,0,0,172.769,197.437ZM82.63,106.68a3.34,3.34,0,1,0-3.34-3.34A3.34,3.34,0,0,0,82.63,106.68Z" transform="translate(-29.192 -66.602)" fill="#415a87"/>
  <path id="Path_10" data-name="Path 10" d="M123.438,197.909v3.34a1.67,1.67,0,0,1-1.67,1.67H101.729a1.67,1.67,0,0,1-1.67-1.67v-3.34a1.67,1.67,0,0,1,1.67-1.67h20.039A1.67,1.67,0,0,1,123.438,197.909ZM78.35,220.874H71.67a1.67,1.67,0,0,0-1.67,1.67v3.34a1.67,1.67,0,0,0,1.67,1.67h6.68a1.67,1.67,0,0,0,1.67-1.67v-3.34A1.67,1.67,0,0,0,78.35,220.874Z" transform="translate(-46.621 -130.698)" fill="#f7d139"/>
  <path id="Path_11" data-name="Path 11" d="M30,165.01v-3.34A1.67,1.67,0,0,1,31.67,160H61.729a1.67,1.67,0,0,1,1.67,1.67v3.34a1.67,1.67,0,0,1-1.67,1.67H31.67A1.67,1.67,0,0,1,30,165.01ZM61.729,210.1H31.67a1.67,1.67,0,0,0-1.67,1.67v3.34a1.67,1.67,0,0,0,1.67,1.67H61.729a1.67,1.67,0,0,0,1.67-1.67v-3.34A1.67,1.67,0,0,0,61.729,210.1ZM43.359,173.773v3.34a1.67,1.67,0,0,0,1.67,1.67H68.408a1.67,1.67,0,0,0,1.67-1.67v-3.34a1.67,1.67,0,0,0-1.67-1.67H45.029A1.67,1.67,0,0,0,43.359,173.773Zm1.67,10.862a1.67,1.67,0,0,0-1.67,1.67v3.34a1.67,1.67,0,0,0,1.67,1.67H58.389a1.67,1.67,0,0,0,1.67-1.67V186.3a1.67,1.67,0,0,0-1.67-1.67Zm56.777,0H91.787a1.67,1.67,0,0,0-1.67,1.67v3.34a1.67,1.67,0,0,0,1.67,1.67h10.02a1.67,1.67,0,0,0,1.67-1.67V186.3A1.67,1.67,0,0,0,101.807,184.635Zm16.7,0h-10.02a1.67,1.67,0,0,0-1.67,1.67v3.34a1.67,1.67,0,0,0,1.67,1.67h10.02a1.67,1.67,0,0,0,1.67-1.67V186.3A1.67,1.67,0,0,0,118.506,184.635Zm-33.4,0H65.068a1.67,1.67,0,0,0-1.67,1.67v3.34a1.67,1.67,0,0,0,1.67,1.67H85.107a1.67,1.67,0,0,0,1.67-1.67V186.3A1.67,1.67,0,0,0,85.107,184.635Zm-13.359,12.1H58.389a1.67,1.67,0,0,0-1.67,1.67v3.34a1.67,1.67,0,0,0,1.67,1.67H71.748a1.67,1.67,0,0,0,1.67-1.67v-3.34A1.67,1.67,0,0,0,71.748,196.738Z" transform="translate(-19.98 -106.563)" fill="#fff573"/>
  <g id="Group_2" data-name="Group 2" transform="translate(10.02 13.359)">
    <path id="Path_12" data-name="Path 12" d="M40.02,222.544v3.34a1.67,1.67,0,0,1-1.67,1.67H31.67a1.67,1.67,0,0,1-1.67-1.67v-3.34a1.67,1.67,0,0,1,1.67-1.67h6.68A1.67,1.67,0,0,1,40.02,222.544Zm-1.67-13.773H31.67a1.67,1.67,0,0,0-1.67,1.67v3.34a1.67,1.67,0,0,0,1.67,1.67h6.68a1.67,1.67,0,0,0,1.67-1.67v-3.34A1.67,1.67,0,0,0,38.35,208.771Zm0-12.532H31.67a1.67,1.67,0,0,0-1.67,1.67v3.34a1.67,1.67,0,0,0,1.67,1.67h6.68a1.67,1.67,0,0,0,1.67-1.67v-3.34A1.67,1.67,0,0,0,38.35,196.239Z" transform="translate(-30 -144.058)" fill="#ff6e91"/>
    <path id="Path_13" data-name="Path 13" d="M300.844,43.34V90.1a3.34,3.34,0,0,1-3.34,3.34H265.058l-8.455,8.455a1.67,1.67,0,0,1-2.362,0l-8.456-8.455H213.34A3.34,3.34,0,0,1,210,90.1V43.34A3.34,3.34,0,0,1,213.34,40H297.5A3.34,3.34,0,0,1,300.844,43.34Z" transform="translate(-149.883 -40)" fill="#ff6e91"/>
  </g>
  <path id="Path_14" data-name="Path 14" d="M297.9,81.5l-6.06,13-4.628,9.925a2.411,2.411,0,0,1-3.2,1.165l-1.745-.814a2.411,2.411,0,0,1-1.165-3.2l4.628-9.925,6.06-13a2.411,2.411,0,0,1,3.2-1.165l1.745.814A2.411,2.411,0,0,1,297.9,81.5Zm-20.518-1.092-1.362-1.362a2.41,2.41,0,0,0-3.406,0L262.291,89.368a2.4,2.4,0,0,0-.7,1.531c-.015.212-.009.994-.005,1.158a2.4,2.4,0,0,0,.7,1.642l10.325,10.325a2.41,2.41,0,0,0,3.406,0l1.362-1.362a2.41,2.41,0,0,0,0-3.406l-7.722-7.723,7.722-7.722A2.411,2.411,0,0,0,277.384,80.405Zm40.583,10.6a2.4,2.4,0,0,0-.7-1.642L306.939,79.043a2.41,2.41,0,0,0-3.406,0L302.172,80.4a2.411,2.411,0,0,0,0,3.406l7.722,7.722-7.722,7.722a2.411,2.411,0,0,0,0,3.406l1.362,1.362a2.41,2.41,0,0,0,3.406,0L317.263,93.7a2.4,2.4,0,0,0,.7-1.531C317.977,91.956,317.971,91.174,317.967,91.009Z" transform="translate(-174.219 -51.455)" fill="#ffebdc"/>
</svg>
