<svg xmlns="http://www.w3.org/2000/svg" width="142" height="142" viewBox="0 0 142 142">
  <g id="Group_16" data-name="Group 16" transform="translate(-3549 416)">
    <g id="Path_60" data-name="Path 60" transform="translate(3549 -416)" fill="none">
      <path d="M71,0A71,71,0,1,1,23.748,18.006,71,71,0,0,1,71,0Z" stroke="none"/>
      <path d="M 71 5 C 54.68738555908203 5 39.09307098388672 10.93986511230469 27.08952331542969 21.72557067871094 C 23.68145751953125 24.78756713867188 20.58281707763672 28.19683837890625 17.87968444824219 31.85865783691406 C 15.15891265869141 35.54438781738281 12.81991577148438 39.5118408203125 10.92768859863281 43.65086364746094 C 9.003936767578125 47.85886383056641 7.525680541992188 52.28068542480469 6.53399658203125 56.79350280761719 C 5.51611328125 61.42556762695312 5 66.20533752441406 5 71 C 5 79.91215515136719 6.744338989257812 88.55506896972656 10.18453979492188 96.68865966796875 C 11.83821105957031 100.5983428955078 13.88525390625 104.3696365356445 16.268798828125 107.8977508544922 C 18.63056945800781 111.3936386108398 21.34307098388672 114.6811828613281 24.33095550537109 117.6690444946289 C 27.31881713867188 120.6569290161133 30.60636138916016 123.3694305419922 34.10224914550781 125.731201171875 C 37.63036346435547 128.11474609375 41.40165710449219 130.1617889404297 45.31134033203125 131.8154602050781 C 53.44493103027344 135.2556610107422 62.08783721923828 137 71 137 C 79.91215515136719 137 88.55506896972656 135.2556610107422 96.68865966796875 131.8154602050781 C 100.5983428955078 130.1617889404297 104.3696365356445 128.11474609375 107.8977508544922 125.731201171875 C 111.3936386108398 123.3694305419922 114.6811828613281 120.6569290161133 117.6690444946289 117.6690444946289 C 120.6569290161133 114.6811828613281 123.3694305419922 111.3936386108398 125.731201171875 107.8977508544922 C 128.11474609375 104.3696365356445 130.1617889404297 100.5983428955078 131.8154602050781 96.68865966796875 C 135.2556610107422 88.55506896972656 137 79.91215515136719 137 71 C 137 62.08783721923828 135.2556610107422 53.44493103027344 131.8154602050781 45.31134033203125 C 130.1617889404297 41.40165710449219 128.11474609375 37.63036346435547 125.731201171875 34.10224914550781 C 123.3694305419922 30.60636138916016 120.6569290161133 27.31881713867188 117.6690444946289 24.33095550537109 C 114.6811828613281 21.34307098388672 111.3936386108398 18.63056945800781 107.8977508544922 16.268798828125 C 104.3696365356445 13.88525390625 100.5983428955078 11.83821105957031 96.68865966796875 10.18453979492188 C 88.55506896972656 6.744338989257812 79.91215515136719 5 71 5 M 71 0 C 110.2122268676758 0 142 31.78777313232422 142 71 C 142 110.2122268676758 110.2122268676758 142 71 142 C 31.78777313232422 142 0 110.2122268676758 0 71 C 0 50.02159118652344 9.098342895507812 31.16822814941406 23.74786376953125 18.00624847412109 C 36.13774871826172 6.8734130859375 52.76618194580078 0 71 0 Z" stroke="none" fill="#3c3b3b"/>
    </g>
    <path id="Path_35" data-name="Path 35" d="M81.645,117.835,42.4,157.089,3.145,117.835a1.843,1.843,0,0,0-2.607,2.606L41.094,161a1.843,1.843,0,0,0,2.607,0l40.555-40.555a1.843,1.843,0,0,0-2.561-2.652l-.045.045Z" transform="translate(3577.988 -484.39)" fill="#ffc107"/>
    <path id="Path_36" data-name="Path 36" d="M42.378,161.54A1.843,1.843,0,0,1,41.072,161L.517,120.446a1.843,1.843,0,0,1,2.606-2.607l39.254,39.25,39.25-39.254a1.843,1.843,0,1,1,2.652,2.561l-.045.045L43.679,161A1.844,1.844,0,0,1,42.378,161.54Z" transform="translate(3578.006 -484.391)"/>
  </g>
</svg>
