<svg xmlns="http://www.w3.org/2000/svg" width="194.855" height="193.421" viewBox="0 0 194.855 193.421">
  <g id="human-resources" transform="translate(0 -0.219)">
    <path id="Path_24" data-name="Path 24" d="M200.674,32.219,194,38.888H184v6.67a20.009,20.009,0,0,0,40.018,0v-6.67H204.009Zm0,0" transform="translate(-107.299 -18.661)" fill="#ffdaaa"/>
    <path id="Path_25" data-name="Path 25" d="M184,20.228h10l6.67-6.67,3.335,6.67h20.009a20.009,20.009,0,0,0-40.018,0Zm0,0" transform="translate(-107.299 0)" fill="#787680"/>
    <path id="Path_26" data-name="Path 26" d="M155.643,135.34a33.539,33.539,0,0,0-16.308,15.875A32.988,32.988,0,0,0,136,165.72v23.344a3.335,3.335,0,0,0,3.335,3.335h36.683V155.715Zm0,0" transform="translate(-79.308 -78.795)" fill="#5aaae7"/>
    <path id="Path_27" data-name="Path 27" d="M203.487,151.563l20.375-20.375a33.156,33.156,0,0,0-13.706-2.968H196.818a33.159,33.159,0,0,0-13.712,2.962Zm0,0" transform="translate(-106.777 -74.643)" fill="#ffc477"/>
    <path id="Path_28" data-name="Path 28" d="M268.683,151.205a33.546,33.546,0,0,0-16.3-15.881L232,155.706v36.683h36.683a3.335,3.335,0,0,0,3.335-3.335V165.711A32.988,32.988,0,0,0,268.683,151.205Zm0,0" transform="translate(-135.29 -78.786)" fill="#3d9ae2"/>
    <path id="Path_29" data-name="Path 29" d="M264,192.219h13.339v6.67H264Zm0,0" transform="translate(-153.95 -111.964)" fill="#1a6fb0"/>
    <path id="Path_30" data-name="Path 30" d="M240.272,314.99a13.3,13.3,0,0,0-17.708-6.435l-45.31,21.1a13.334,13.334,0,0,1-5.632,1.247h-8.251a13.339,13.339,0,0,0,0-26.679H113.348a19.947,19.947,0,0,0-18.841,13.339H80v43.353h90.42a13.36,13.36,0,0,0,5.634-1.247l57.782-26.931a13.38,13.38,0,0,0,7.671-12.107A13.552,13.552,0,0,0,240.272,314.99Zm0,0" transform="translate(-46.652 -177.276)" fill="#ffdaaa"/>
    <path id="Path_31" data-name="Path 31" d="M249.552,352.219a13.269,13.269,0,0,1-11.538,6.67H208v-6.67Zm0,0" transform="translate(-121.294 -205.267)" fill="#ffdaaa"/>
    <path id="Path_32" data-name="Path 32" d="M33.348,304.219H0v66.7H33.348Zm0,0" transform="translate(0 -177.276)" fill="#3d9ae2"/>
    <g id="Group_3" data-name="Group 3" transform="translate(33.348 140.282)">
      <path id="Path_33" data-name="Path 33" d="M80,336.219h6.67v43.353H80Zm0,0" transform="translate(-80 -336.219)" fill="#ffc477"/>
      <path id="Path_34" data-name="Path 34" d="M249.552,352.219a13.269,13.269,0,0,1-11.538,6.67H208v-6.67Zm0,0" transform="translate(-154.643 -345.549)" fill="#ffc477"/>
    </g>
  </g>
</svg>
