<svg xmlns="http://www.w3.org/2000/svg" width="166.012" height="166.007" viewBox="0 0 166.012 166.007">
  <g id="pencil" transform="translate(0 -0.006)">
    <path id="Path_15" data-name="Path 15" d="M0,166.013,11.649,116.5,120.3,7.848a26.772,26.772,0,0,1,45.7,18.931h0a26.765,26.765,0,0,1-7.842,18.931L49.516,154.364Z" transform="translate(0 0)" fill="#e9c1a4"/>
    <path id="Path_16" data-name="Path 16" d="M130.248,222.851v21.072l2.911-.684,93.2-93.2L214.706,138.39Z" transform="translate(-83.649 -88.874)" fill="#bf2e3e"/>
    <path id="Path_17" data-name="Path 17" d="M89.544,196.715h14.563l84.458-84.461L174,97.694,89.544,182.152Z" transform="translate(-57.507 -62.738)" fill="#ff3d53"/>
    <path id="Path_18" data-name="Path 18" d="M327.442.006a26.765,26.765,0,0,0-18.931,7.842L293.056,23.3l11.649,11.652,14.56,14.566,11.652,11.649,11.649-11.649L304.7,11.655l37.867,37.867,3.807-3.807A26.773,26.773,0,0,0,327.442.006Z" transform="translate(-188.208 0)" fill="#e6e6e6"/>
    <path id="Path_19" data-name="Path 19" d="M136.18,76.778,124.531,65.126l-93.2,93.2-.684,2.911H51.719Z" transform="translate(-19.683 -41.822)" fill="#f5908b"/>
    <path id="Path_20" data-name="Path 20" d="M5.461,399.142,0,422.349l23.25-5.47c-.509-8.123-9.7-17.368-17.789-17.737Z" transform="translate(0 -256.335)" fill="#1a1a1a"/>
    <path id="Path_21" data-name="Path 21" d="M56.4,348.321H41.84V333.758H20.768l-5.5,23.393c8.091.369,17.279,9.614,17.789,17.746l23.35-5.5Z" transform="translate(-9.803 -214.344)" fill="#c69c6d"/>
    <path id="Path_22" data-name="Path 22" d="M426.863,62.967a2.862,2.862,0,0,1-2.024-4.886,9.293,9.293,0,0,0,0-13.126,2.862,2.862,0,0,1,4.047-4.047,15.027,15.027,0,0,1,0,21.22A2.864,2.864,0,0,1,426.863,62.967Z" transform="translate(-272.305 -25.752)" fill="#f2f2f2"/>
    <path id="Path_23" data-name="Path 23" d="M293.091,44.218l11.65-11.65L342.6,70.43l-11.65,11.649Z" transform="translate(-188.23 -20.913)" fill="#ff902a"/>
  </g>
</svg>
