<svg xmlns="http://www.w3.org/2000/svg" width="43.727" height="55.12" viewBox="0 0 43.727 55.12">
  <g id="pointing-down" transform="translate(-52.91)">
    <path id="Path_37" data-name="Path 37" d="M52.91,31.361a3.8,3.8,0,1,0,7.6,0v4.752a3.8,3.8,0,0,0,7.6,0v3.8a3.812,3.812,0,0,0,3.8,3.8h0a3.812,3.812,0,0,0,3.8-3.8v11.4a3.812,3.812,0,0,0,3.8,3.8h0a3.812,3.812,0,0,0,3.8-3.8V26.609l1.711,2.566c1.9,3.326,6.462,4.847,9.5,3.706l1.14-.57a1.846,1.846,0,0,0,.95-1.9c0-.285-5.417-5.8-8.553-11.4a50.478,50.478,0,0,0-5.7-7.6V8.553A8.517,8.517,0,0,0,73.817,0h-9.5a9.228,9.228,0,0,0-8.363,6.747A7.075,7.075,0,0,1,54.811,9.5c-.855.95-1.9,3.326-1.9,6.652V31.361Z" transform="translate(0)" fill="#fdc794"/>
    <g id="Group_7" data-name="Group 7" transform="translate(53.801 7.603)">
      <path id="Path_38" data-name="Path 38" d="M319.646,220.69a.913.913,0,0,1,.855.57l.95,1.9a.914.914,0,0,1-1.616.855l-.95-1.9a1,1,0,0,1,.38-1.235c.095-.19.19-.19.38-.19" transform="translate(-291.076 -204.534)" fill="#f9a671"/>
      <path id="Path_39" data-name="Path 39" d="M256.894,220.69a.9.9,0,0,1,.95.95V237.8a.95.95,0,0,1-1.9,0V221.64a.9.9,0,0,1,.95-.95" transform="translate(-234.977 -204.534)" fill="#f9a671"/>
      <path id="Path_40" data-name="Path 40" d="M186.274,229.517a.9.9,0,0,1,.95.95v10.454a.95.95,0,1,1-1.9,0V230.467a.9.9,0,0,1,.95-.95" transform="translate(-171.96 -212.411)" fill="#f9a671"/>
      <path id="Path_41" data-name="Path 41" d="M115.653,220.69a.9.9,0,0,1,.95.95v6.652a.95.95,0,0,1-1.9,0V221.64a.9.9,0,0,1,.95-.95" transform="translate(-108.941 -204.534)" fill="#f9a671"/>
      <path id="Path_42" data-name="Path 42" d="M66.946,70.621a1.144,1.144,0,0,1,.95.665,1.089,1.089,0,0,1-.665,1.235l-.57.1c-2.091.57-3.231.855-3.611,2.091a.962.962,0,0,1-1.806-.665c.76-2.281,2.851-2.756,4.942-3.326l.475-.1h.285" transform="translate(-61.184 -70.621)" fill="#f9a671"/>
      <path id="Path_43" data-name="Path 43" d="M274.12,70.621a1.35,1.35,0,0,1,.57.19,18.268,18.268,0,0,0,1.616,1.235,17.163,17.163,0,0,1,2.186,1.711.943.943,0,1,1-1.235,1.426c-.665-.57-1.331-1.045-2-1.521a17.277,17.277,0,0,1-1.806-1.331.924.924,0,0,1-.1-1.331.864.864,0,0,1,.76-.38" transform="translate(-250.302 -70.621)" fill="#f9a671"/>
    </g>
  </g>
</svg>
